<svg xmlns="http://www.w3.org/2000/svg" class="fill-blue-500"  data-name="Layer 1" viewBox="0 0 100 125" x="0px" y="0px"><path d="M75.392,61.382a1.076,1.076,0,0,1-.917,1.214,30.75,30.75,0,0,0-17.428,8.693,1.076,1.076,0,0,1-1.523-1.519,32.919,32.919,0,0,1,18.654-9.3A1.075,1.075,0,0,1,75.392,61.382ZM74.178,46.754a32.919,32.919,0,0,0-18.654,9.305,1.076,1.076,0,0,0,1.523,1.519,30.756,30.756,0,0,1,17.428-8.693,1.076,1.076,0,0,0-.3-2.131ZM25.525,48.885a30.756,30.756,0,0,1,17.428,8.693,1.076,1.076,0,1,0,1.523-1.519,32.919,32.919,0,0,0-18.654-9.3,1.076,1.076,0,0,0-.3,2.131Zm0,13.711a30.75,30.75,0,0,1,17.428,8.693,1.076,1.076,0,1,0,1.523-1.519,32.919,32.919,0,0,0-18.654-9.3,1.076,1.076,0,0,0-.3,2.131Zm0-27.422a30.538,30.538,0,0,1,7.757,2.153,1.076,1.076,0,1,0,.843-1.979,32.7,32.7,0,0,0-8.3-2.3,1.076,1.076,0,0,0-.3,2.131ZM66.3,37.413a1.079,1.079,0,0,0,.421-.086,30.538,30.538,0,0,1,7.757-2.153,1.076,1.076,0,0,0-.3-2.131,32.689,32.689,0,0,0-8.3,2.3,1.076,1.076,0,0,0,.422,2.065ZM95,32.6V91.329a1.076,1.076,0,0,1-1.481,1A51.638,51.638,0,0,0,50.5,94.2l-.026.012-.017.008-.022.011-.029.012,0,0-.025.009-.07.025-.006,0h0l-.033.008c-.02,0-.039.011-.059.015l-.04.006-.03,0-.033,0A.942.942,0,0,1,50,94.32h0a1.226,1.226,0,0,1-.136-.009l-.033-.006-.017,0-.016,0a.829.829,0,0,1-.086-.021l-.016,0a.815.815,0,0,1-.083-.029l-.008,0-.006,0-.033-.014-.022-.011-.024-.011-.02-.01A51.644,51.644,0,0,0,6.481,92.326a1.076,1.076,0,0,1-1.481-1V32.6a1.076,1.076,0,0,1,.981-1.071,45.689,45.689,0,0,1,5.284-.16V26.124a1.076,1.076,0,0,1,.981-1.072,39.394,39.394,0,0,1,5.187-.112V20.219a1.076,1.076,0,0,1,.981-1.071,32.453,32.453,0,0,1,18.967,4.093,13.5,13.5,0,0,1,25.238,0,32.449,32.449,0,0,1,18.967-4.093,1.076,1.076,0,0,1,.981,1.071V24.94a39.222,39.222,0,0,1,5.187.112,1.076,1.076,0,0,1,.981,1.072V31.37a45.689,45.689,0,0,1,5.284.16A1.076,1.076,0,0,1,95,32.6ZM82.567,27.093V75.062A1.075,1.075,0,0,1,81.4,76.134,30.67,30.67,0,0,0,53.911,88.7a43.485,43.485,0,0,1,32.672-7.189V27.122A36.856,36.856,0,0,0,82.567,27.093ZM44.293,46.263a1.359,1.359,0,0,0,1.358,1.358h8.7a1.359,1.359,0,0,0,1.358-1.358V44.905H44.293ZM51.6,29.72A1.6,1.6,0,1,0,50,31.314,1.6,1.6,0,0,0,51.6,29.72ZM47.71,50.508a.746.746,0,0,0,.736.735h3.108a.746.746,0,0,0,.736-.735v-.736H47.71ZM63.236,25.369a13.5,13.5,0,0,1-2.873,11.323,8.753,8.753,0,0,0-1.707,3.084L57.575,43.1a1.074,1.074,0,0,1,.283.726v2.433a3.512,3.512,0,0,1-3.417,3.505v.74A2.89,2.89,0,0,1,51.554,53.4h-.478V89.037a32.731,32.731,0,0,1,29.34-15.129V21.219A30.314,30.314,0,0,0,63.236,25.369ZM38.65,28.036a11.358,11.358,0,0,0,2.638,7.276,10.914,10.914,0,0,1,2.1,3.8l1.184,3.643h4.351V33.307a3.746,3.746,0,1,1,2.152,0v9.447h4.351l1.183-3.643a10.933,10.933,0,0,1,2.1-3.8A11.351,11.351,0,1,0,38.65,28.036ZM19.584,73.908a32.731,32.731,0,0,1,29.34,15.129V53.4h-.478a2.89,2.89,0,0,1-2.887-2.887v-.74a3.512,3.512,0,0,1-3.417-3.505V43.83a1.074,1.074,0,0,1,.283-.726l-1.082-3.328a8.735,8.735,0,0,0-1.706-3.084,13.5,13.5,0,0,1-2.873-11.323,30.314,30.314,0,0,0-17.18-4.15Zm-6.167,7.6A43.489,43.489,0,0,1,46.089,88.7,30.672,30.672,0,0,0,18.6,76.134a1.075,1.075,0,0,1-1.171-1.072V27.093a36.856,36.856,0,0,0-4.016.029V81.509ZM42.67,89.028a41.328,41.328,0,0,0-30.105-5.159,1.077,1.077,0,0,1-1.3-1.053V33.523c-1.367-.041-2.744-.016-4.114.074V89.756A53.784,53.784,0,0,1,42.67,89.028ZM92.849,33.6c-1.369-.09-2.746-.114-4.114-.074V82.816a1.077,1.077,0,0,1-1.3,1.053,41.327,41.327,0,0,0-30.106,5.16,53.772,53.772,0,0,1,35.52.727Zm-42.9-20.588a1.075,1.075,0,0,0,1.076-1.075V6.756a1.076,1.076,0,0,0-2.152,0v5.178A1.075,1.075,0,0,0,49.948,13.009ZM36.626,17.94a1.076,1.076,0,0,0,1.521-1.521l-3.661-3.661a1.076,1.076,0,1,0-1.521,1.521Zm-9.59,12.907h5.178a1.076,1.076,0,1,0,0-2.151H27.036a1.076,1.076,0,0,0,0,2.151Zm35.5-12.665a1.074,1.074,0,0,0,.761-.315l3.661-3.661a1.076,1.076,0,1,0-1.521-1.521l-3.662,3.661a1.076,1.076,0,0,0,.761,1.836Zm5.246,12.562h5.178a1.076,1.076,0,0,0,0-2.152H67.786a1.076,1.076,0,0,0,0,2.152Z"/><text x="0" y="115" fill="#000000" font-size="5px" font-weight="bold" font-family="'Helvetica Neue', Helvetica, Arial-Unicode, Arial, Sans-serif">Created by surotobendol075</text><text x="0" y="120" fill="#000000" font-size="5px" font-weight="bold" font-family="'Helvetica Neue', Helvetica, Arial-Unicode, Arial, Sans-serif">from the Noun Project</text></svg>