<svg xmlns="http://www.w3.org/2000/svg" class="fill-blue-500"  data-name="Layer 1" viewBox="0 0 100 125" x="0px" y="0px"><path d="M53.968,46.342H75.721a.956.956,0,0,0,.956-.956A11.852,11.852,0,0,0,68.83,34.245a5.745,5.745,0,1,0-7.336-.206,11.852,11.852,0,0,0-8.482,11.347A.956.956,0,0,0,53.968,46.342ZM65.286,25.9a3.833,3.833,0,1,1-3.832,3.833A3.837,3.837,0,0,1,65.286,25.9Zm-.441,9.569a9.934,9.934,0,0,1,9.874,8.964H54.97A9.934,9.934,0,0,1,64.845,35.465Zm-22.2,12.023a11.894,11.894,0,0,0-7.88-11.181,5.764,5.764,0,1,0-7.35-.207A11.893,11.893,0,0,0,18.9,47.488a.956.956,0,0,0,.956.956H41.693A.956.956,0,0,0,42.649,47.488ZM31.218,27.921a3.851,3.851,0,1,1-3.851,3.851A3.855,3.855,0,0,1,31.218,27.921ZM20.858,46.532a9.963,9.963,0,0,1,19.833,0ZM45.389,63.817a5.763,5.763,0,1,0-7.35-.206A11.892,11.892,0,0,0,29.521,75a.956.956,0,0,0,.956.956H52.313A.957.957,0,0,0,53.27,75,11.9,11.9,0,0,0,45.389,63.817Zm-3.55-8.386a3.851,3.851,0,1,1-3.851,3.851A3.856,3.856,0,0,1,41.839,55.431ZM31.479,74.043a9.963,9.963,0,0,1,19.833,0Zm50.64-9.805A5.754,5.754,0,0,0,84.332,59.7c0-.1,0-.2-.008-.3a.95.95,0,0,0,.048-.139A37.907,37.907,0,0,0,85.518,50,37.758,37.758,0,0,0,21.06,23.3,37.758,37.758,0,1,0,74.775,76.376H89.043A.956.956,0,0,0,90,75.42,11.894,11.894,0,0,0,82.119,64.238Zm-3.55-.684A3.851,3.851,0,1,1,82.42,59.7,3.855,3.855,0,0,1,78.569,63.554ZM83.6,49.2a.955.955,0,0,0-.528-.159H48.715V14.6a.95.95,0,0,0-.105-.435A35.89,35.89,0,0,1,83.6,49.2ZM47.759,85.846a35.846,35.846,0,0,1-.851-71.682.95.95,0,0,0-.105.435V50a1.092,1.092,0,0,0,.007.115l0,.029a.788.788,0,0,0,.017.087l.007.028a.9.9,0,0,0,.036.1v0a.911.911,0,0,0,.051.1l0,.008L64.859,81.529A35.625,35.625,0,0,1,47.759,85.846Zm18.754-5.275-17.1-29.615H83.067a.947.947,0,0,0,.526-.158,36.016,36.016,0,0,1-.513,5.325,5.76,5.76,0,1,0-8.311,7.908A11.894,11.894,0,0,0,66.251,75.42a.956.956,0,0,0,.956.956h4.826A36.015,36.015,0,0,1,66.513,80.571Zm1.7-6.108a9.963,9.963,0,0,1,19.833,0Z"/><text x="0" y="115" fill="#000000" font-size="5px" font-weight="bold" font-family="'Helvetica Neue', Helvetica, Arial-Unicode, Arial, Sans-serif">Created by icon 5</text><text x="0" y="120" fill="#000000" font-size="5px" font-weight="bold" font-family="'Helvetica Neue', Helvetica, Arial-Unicode, Arial, Sans-serif">from the Noun Project</text></svg>