<svg xmlns="http://www.w3.org/2000/svg" class="fill-blue-500"  xmlns:xlink="http://www.w3.org/1999/xlink" version="1.1" x="0px" y="0px" viewBox="0 0 100 125" style="enable-background:new 0 0 100 100;" xml:space="preserve"><path d="M32.02,96.69C32.6,96.82,46.12,100,50.93,100c4.82,0,18.34-3.18,18.91-3.31c0.56-0.13,0.96-0.64,0.96-1.21V80.31h15.95  c3.12,0,5.66-2.54,5.66-5.66v-0.63v-0.37V19.84c0-1.87-1.52-3.39-3.39-3.39H71.65V7.66c0-4.22-3.44-7.66-7.66-7.66H36.01  c-4.22,0-7.66,3.44-7.66,7.66v8.79H10.97c-1.87,0-3.39,1.52-3.39,3.39v54.94c0,3.05,2.48,5.53,5.53,5.53h12.16v1.59  c-1.51,0.51-2.61,1.94-2.61,3.62c0,0.95,0.35,1.83,0.93,2.5v6.79c0,0.49,0.29,0.94,0.74,1.14c0.16,0.07,0.33,0.11,0.51,0.11  c0.3,0,0.6-0.11,0.84-0.32l0.81-0.73l0.81,0.73c0.37,0.33,0.89,0.41,1.34,0.22c0.45-0.2,0.74-0.65,0.74-1.14v-6.79  c0.58-0.67,0.93-1.54,0.93-2.5c0-1.66-1.07-3.08-2.55-3.6v-1.61h3.3v15.16C31.06,96.05,31.46,96.55,32.02,96.69z M26.09,92.14v-2.81  c0.13,0.01,0.26,0.02,0.4,0.02c0.13,0,0.27-0.01,0.4-0.02v2.81C26.63,92.06,26.35,92.06,26.09,92.14z M26.49,86.86  c-0.73,0-1.33-0.6-1.33-1.33c0-0.21,0.05-0.41,0.14-0.59c0.12,0.56,0.62,0.98,1.22,0.98c0.57,0,1.05-0.38,1.2-0.91  c0.07,0.16,0.1,0.33,0.1,0.51C27.82,86.26,27.22,86.86,26.49,86.86z M52.18,68.97c-0.06-0.69-0.66-1.2-1.35-1.14l-24.16,2.08  l-0.69-0.23c-0.58-0.27-0.79-0.52-0.82-0.6c0.04-0.08,0.24-0.33,0.82-0.6l21.46-7.19c0.04-0.01,0.08-0.03,0.11-0.04  c1.83-0.82,4.92-0.82,6.76,0c0.04,0.02,0.08,0.03,0.11,0.04l21.46,7.19c0.58,0.27,0.78,0.52,0.82,0.6c-0.04,0.08-0.24,0.33-0.82,0.6  l-21.46,7.19c-0.04,0.01-0.08,0.03-0.11,0.04c-1.83,0.82-4.93,0.82-6.76,0c-0.04-0.02-0.08-0.03-0.11-0.05L32.62,71.9l18.42-1.58  C51.73,70.26,52.23,69.66,52.18,68.97z M46.59,79.22c1.22,0.54,2.78,0.8,4.34,0.8c1.56,0,3.12-0.27,4.34-0.8l13.03-4.37v13.32  c-3.21,0.73-13.55,3.02-17.38,3.02c-3.82,0-14.17-2.29-17.38-3.02V74.85L46.59,79.22z M50.93,97.51c-3.82,0-14.17-2.29-17.38-3.02  v-3.75c3.78,0.86,13.46,2.96,17.38,2.96c3.92,0,13.59-2.1,17.38-2.96v3.75C65.1,95.21,54.76,97.51,50.93,97.51z M89.92,74.65  c0,1.75-1.42,3.17-3.17,3.17h-4.44V74.8c0-2.52,2.05-4.57,4.57-4.57h3.04v3.42v0.37V74.65z M30.84,7.66c0-2.85,2.32-5.17,5.17-5.17  h27.98c2.85,0,5.17,2.32,5.17,5.17v8.79h-4.9v-6.9c0-1.4-1.14-2.53-2.53-2.53H38.28c-1.4,0-2.53,1.14-2.53,2.53v6.9h-4.9V7.66z   M61.76,16.46H38.24v-6.9c0-0.02,0.02-0.04,0.04-0.04h23.45c0.02,0,0.04,0.02,0.04,0.04V16.46z M10.08,19.84  c0-0.49,0.4-0.89,0.89-0.89h78.06c0.49,0,0.89,0.4,0.89,0.89v15.64c0,4.03-3.28,7.3-7.31,7.3H67.84v-3.2c0-1.87-1.52-3.38-3.39-3.38  h-5.2c-1.87,0-3.39,1.52-3.39,3.38v3.2H44.14v-3.2c0-1.87-1.52-3.38-3.39-3.38h-5.2c-1.87,0-3.39,1.52-3.39,3.38v3.2H17.39  c-4.03,0-7.31-3.28-7.31-7.3V19.84z M61.85,42.79c-0.69,0-1.25,0.56-1.25,1.25v5.34h-1.36c-0.49,0-0.89-0.4-0.89-0.89v-8.89  c0-0.49,0.4-0.89,0.89-0.89h5.2c0.49,0,0.89,0.4,0.89,0.89v8.89c0,0.49-0.4,0.89-0.89,0.89H63.1v-5.34  C63.1,43.34,62.54,42.79,61.85,42.79z M38.15,42.79c-0.69,0-1.25,0.56-1.25,1.25v5.34h-1.36c-0.49,0-0.89-0.4-0.89-0.89v-8.89  c0-0.49,0.4-0.89,0.89-0.89h5.2c0.49,0,0.89,0.4,0.89,0.89v8.89c0,0.49-0.4,0.89-0.89,0.89H39.4v-5.34  C39.4,43.34,38.84,42.79,38.15,42.79z M10.08,74.79v-4.56h3.04c2.52,0,4.57,2.05,4.57,4.57v3.02h-4.58  C11.44,77.82,10.08,76.46,10.08,74.79z M20.19,77.82V74.8c0-3.9-3.17-7.07-7.07-7.07h-3.04V42c1.8,2.01,4.41,3.28,7.31,3.28h14.78  v3.2c0,1.87,1.52,3.39,3.39,3.39h5.2c1.87,0,3.39-1.52,3.39-3.39v-3.2h11.72v3.2c0,1.87,1.52,3.39,3.39,3.39h5.2  c1.87,0,3.39-1.52,3.39-3.39v-3.2h14.78c2.9,0,5.51-1.27,7.31-3.28v25.73h-3.04c-3.9,0-7.07,3.17-7.07,7.07v3.02h-9.01v-3.8  l5.94-1.99c0.04-0.01,0.08-0.03,0.11-0.05c2.05-0.92,2.35-2.21,2.35-2.9c0-0.7-0.3-1.98-2.35-2.9c-0.04-0.02-0.08-0.03-0.11-0.04  l-21.47-7.19c-2.45-1.07-6.23-1.07-8.68,0l-21.47,7.19c-0.04,0.01-0.08,0.03-0.11,0.04c-2.05,0.92-2.35,2.21-2.35,2.9  c0,0.7,0.3,1.98,2.35,2.9c0.04,0.02,0.08,0.03,0.11,0.04l0.15,0.05v5.74H20.19z M27.77,77.82v-4.91l3.3,1.11v3.8H27.77z"/><text x="0" y="115" fill="#000000" font-size="5px" font-weight="bold" font-family="'Helvetica Neue', Helvetica, Arial-Unicode, Arial, Sans-serif">Created by Zona desain</text><text x="0" y="120" fill="#000000" font-size="5px" font-weight="bold" font-family="'Helvetica Neue', Helvetica, Arial-Unicode, Arial, Sans-serif">from the Noun Project</text></svg>