<svg xmlns="http://www.w3.org/2000/svg" xmlns:xlink="http://www.w3.org/1999/xlink" class="fill-blue-500" version="1.1" x="0px" y="0px" viewBox="0 0 3873 4841.25" style="enable-background:new 0 0 3873 3873;" xml:space="preserve"><g><g><path d="M3586.6,2771.5H286.4c-33.4,0-60.5-27.1-60.5-60.5s27.1-60.5,60.5-60.5h3300.3c33.4,0,60.5,27.1,60.5,60.5    C3647.1,2744.4,3620,2771.5,3586.6,2771.5z"/></g><g><g><path d="M2608.8,3002.9h-94.1c-33.4,0-60.5-27.1-60.5-60.5s27.1-60.5,60.5-60.5h94.1c33.4,0,60.5,27.1,60.5,60.5     C2669.3,2975.8,2642.2,3002.9,2608.8,3002.9z"/></g><g><path d="M2941.1,3002.9H2847c-33.4,0-60.5-27.1-60.5-60.5s27.1-60.5,60.5-60.5h94.1c33.4,0,60.5,27.1,60.5,60.5     C3001.7,2975.8,2974.6,3002.9,2941.1,3002.9z"/></g><g><path d="M3273.5,3002.9h-94.1c-33.4,0-60.5-27.1-60.5-60.5s27.1-60.5,60.5-60.5h94.1c33.4,0,60.5,27.1,60.5,60.5     C3334,2975.8,3306.9,3002.9,3273.5,3002.9z"/></g></g><g><path d="M1555.1,3699c-4.5,0-9.2-0.5-13.8-1.6c-32.6-7.6-52.8-40.1-45.2-72.7l108.1-464.7c7.6-32.5,40.1-52.8,72.7-45.2    s52.8,40.1,45.2,72.7L1614,3652.2C1607.5,3680.1,1582.6,3699,1555.1,3699z"/></g><g><path d="M2317.8,3699c-28.5,0-53.9-20.2-59.4-49.2l-88.3-464.7c-6.2-32.8,15.3-64.5,48.2-70.8c32.8-6.2,64.5,15.3,70.8,48.2    l88.3,464.7c6.2,32.8-15.3,64.5-48.2,70.8C2325.4,3698.7,2321.6,3699,2317.8,3699z"/></g><g><path d="M2587.5,3699h-1302c-33.4,0-60.5-27.1-60.5-60.5s27.1-60.5,60.5-60.5h1302.1c33.4,0,60.5,27.1,60.5,60.5    S2620.9,3699,2587.5,3699z"/></g><g><path d="M3448.4,3234.3H424.6c-109.6,0-198.8-89.2-198.8-198.7V1204.5c0-109.6,89.2-198.7,198.8-198.7h269    c33.4,0,60.5,27.1,60.5,60.5s-27.1,60.5-60.5,60.5h-269c-42.9,0-77.7,34.9-77.7,77.7v1831.1c0,42.8,34.9,77.7,77.7,77.7h3023.8    c42.9,0,77.7-34.9,77.7-77.7V1204.5c0-42.8-34.9-77.7-77.7-77.7h-269c-33.4,0-60.5-27.1-60.5-60.5s27.1-60.5,60.5-60.5h269    c109.6,0,198.8,89.2,198.8,198.7v1831.1C3647.1,3145.1,3558,3234.3,3448.4,3234.3z"/></g><g><path d="M3179.4,2245.4H693.6c-33.4,0-60.5-27.1-60.5-60.5V234.5c0-33.4,27.1-60.5,60.5-60.5h2485.8c33.4,0,60.5,27.1,60.5,60.5    v1950.4C3239.9,2218.3,3212.8,2245.4,3179.4,2245.4z M754.1,2124.4h2364.8V295H754.1V2124.4z"/></g><g><path d="M2278.8,1013.1c-15,0-30-5.5-41.8-16.7c-24.2-23.1-25.1-61.4-2-85.6l129.4-135.6L2235,639.5c-23.1-24.2-22.2-62.5,2-85.6    s62.5-22.2,85.6,2l169.2,177.4c22.3,23.4,22.3,60.2,0,83.5l-169.2,177.4C2310.7,1006.8,2294.7,1013.1,2278.8,1013.1z"/></g><g><path d="M1594.2,1013.1c-16,0-31.9-6.3-43.8-18.7L1381.2,817c-22.3-23.4-22.3-60.2,0-83.5L1550.4,556c23.1-24.2,61.4-25.1,85.6-2    s25.1,61.4,2,85.6l-129.4,135.6L1638,910.8c23.1,24.2,22.2,62.5-2,85.6C1624.3,1007.6,1609.2,1013.1,1594.2,1013.1z"/></g><g><path d="M1861.8,1051.6c-6.6,0-13.2-1.1-19.8-3.3c-31.6-10.9-48.3-45.4-37.4-77L1954,539.5c10.9-31.6,45.4-48.3,77-37.4    c31.6,10.9,48.3,45.4,37.4,77L1919,1010.9C1910.3,1035.9,1886.9,1051.6,1861.8,1051.6z"/></g><g><path d="M2401.3,1317.4H981.4c-33.4,0-60.5-27.1-60.5-60.5s27.1-60.5,60.5-60.5h1419.9c33.4,0,60.5,27.1,60.5,60.5    C2461.9,1290.3,2434.8,1317.4,2401.3,1317.4z"/></g><g><path d="M2647.7,1619H981.4c-33.4,0-60.5-27.1-60.5-60.5s27.1-60.5,60.5-60.5h1666.3c33.4,0,60.5,27.1,60.5,60.5    C2708.2,1591.9,2681.1,1619,2647.7,1619z"/></g><g><path d="M2891.6,1920.6H981.4c-33.4,0-60.5-27.1-60.5-60.5s27.1-60.5,60.5-60.5h1910.2c33.4,0,60.5,27.1,60.5,60.5    S2925,1920.6,2891.6,1920.6z"/></g></g><text x="0" y="3888" fill="#000000" font-size="5px" font-weight="bold" font-family="'Helvetica Neue', Helvetica, Arial-Unicode, Arial, Sans-serif">Created by Graphixs_Art</text><text x="0" y="3893" fill="#000000" font-size="5px" font-weight="bold" font-family="'Helvetica Neue', Helvetica, Arial-Unicode, Arial, Sans-serif">from the Noun Project</text></svg>